<svg width="414" height="789" viewBox="0 0 414 789" fill="none" xmlns="http://www.w3.org/2000/svg">
<path d="M99 438.453C61.4 491.653 19 515.953 2.5 521.453L-31 777.953C47.1667 794.453 214.2 818.753 257 783.953C310.5 740.453 288 499.324 262.5 466.824C237 434.324 146 371.953 99 438.453Z" fill="#007CBE" fill-opacity="0.15"/>
<path d="M82 426.453C44.4 479.653 2 503.953 -14.5 509.453L-48 765.953C30.1667 782.453 197.2 806.753 240 771.953C293.5 728.453 271 487.324 245.5 454.824C220 422.324 129 359.953 82 426.453Z" stroke="#007CBE"/>
<path d="M339.933 21.7261C387.44 38.307 429.848 14.8174 445.113 1L448.636 5.90882L505 410.614C499.632 422.431 474 445.412 414.415 442.794C339.933 439.521 269.982 338.618 291.621 303.165C313.261 267.713 233.244 150.446 214.624 107.358C196.004 64.2693 280.55 1 339.933 21.7261Z" stroke="#00AF54"/>
<circle cx="-24" cy="212" r="173" fill="#FBB13C" fill-opacity="0.15"/>
<circle cx="-27" cy="184" r="172.5" stroke="#FBB13C"/>
<path d="M311 28.5C358.2 43.7 400.333 22.1667 415.5 9.5L419 14L475 385C469.667 395.833 444.2 416.9 385 414.5C311 411.5 241.5 319 263 286.5C284.5 254 205 146.5 186.5 107C168 67.5 252 9.5 311 28.5Z" fill="#00AF54" fill-opacity="0.15"/>
</svg>
