<svg width="28" height="27" viewBox="0 0 28 27" fill="none" xmlns="http://www.w3.org/2000/svg">
<path d="M7.05882 5.70947e-05C4.64128 0.00106134 2.37022 0.626595 1.32214 1.74002C-0.41401 3.58438 1.39226 6.58216 0.0352638 11.1165C-0.452582 12.7467 4.23675 16.5804 6.95607 19.5759C6.79116 19.1343 6.76829 18.6534 6.89059 18.1985V18.1601L6.91721 18.0799C7.91148 15.1003 7.63587 13.5222 6.84641 11.0885C6.55222 10.1819 6.60716 9.31829 6.94723 8.58842C7.2873 7.85856 7.88747 7.27297 8.62521 6.81353C10.1007 5.89465 12.148 5.44034 14.1937 5.38215C14.4485 5.37472 14.7035 5.37357 14.9584 5.37869C16.2855 5.40614 17.5814 5.60593 18.6913 6.00467C18.3633 5.66769 17.9922 5.32831 17.5957 4.98815C15.2253 3.64062 8.78766 3.96203 5.81272 5.88778C7.68554 3.42035 12.3134 2.19473 16.2646 3.91238C15.7969 3.5518 15.3166 3.19479 14.8415 2.84531C12.5129 1.46447 6.00502 1.77601 3.00901 3.71532C4.83255 1.31294 9.2695 0.0862547 13.1494 1.60919C11.5208 0.503854 9.23115 -0.00089136 7.05882 5.70947e-05ZM14.5796 6.41775C14.4609 6.41808 14.3426 6.41964 14.2239 6.42305C12.3224 6.47716 10.4187 6.93158 9.19162 7.69576C8.57809 8.07782 8.13963 8.52616 7.90837 9.02248C7.67699 9.51891 7.62839 10.0721 7.85513 10.7713C8.65886 13.2484 8.96256 15.2206 7.94898 18.3154V18.3275L7.92247 18.406C7.84901 18.6258 7.85433 19.0698 8.02499 19.3807C8.19582 19.6914 8.46112 19.9315 9.14364 19.9315C9.55712 19.9315 10.1058 19.9304 10.6146 19.9298C11.8514 19.0078 13.2965 17.9669 14.3741 17.1419C14.9473 16.7032 15.6641 16.6052 16.307 16.6224C16.9499 16.6397 17.5195 16.7693 17.9248 16.9607C19.0419 17.4875 20.0249 17.833 21.04 18.0835C21.0319 18.0293 21.0208 17.9826 21.0082 17.9457C20.0893 15.2691 19.6426 12.9032 20.532 10.2622C20.7631 9.57604 20.715 9.05462 20.4931 8.59713C20.2711 8.13975 19.8465 7.73069 19.2399 7.39242C18.1784 6.80064 16.5897 6.46071 14.9352 6.42132C14.8167 6.41861 14.6981 6.41727 14.5796 6.41775ZM16.185 17.6632C16.1538 17.6632 16.1236 17.6641 16.0929 17.6651C15.6641 17.6788 15.2635 17.7814 15.0238 17.965C13.6435 19.0216 11.7048 20.4036 10.3634 21.4345C10.0989 21.6376 10.0131 21.7984 9.99161 21.8825C9.97009 21.9667 9.97768 22.0033 10.0377 22.0865C10.1575 22.2531 10.5922 22.475 11.0235 22.4718C14.1231 22.4492 16.5398 23.1802 18.5797 24.1473C19.6859 24.6717 21.0406 24.6897 22.3588 24.3739C23.6768 24.0582 24.9437 23.4082 25.8155 22.6897C26.6873 21.9712 27.0803 21.2051 27.0086 20.7963C26.9726 20.5918 26.8623 20.4063 26.5129 20.2017C26.1635 19.9973 25.5747 19.8104 24.7181 19.7189C21.9205 19.4202 19.963 19.0772 17.4681 17.9004C17.2796 17.8115 16.7746 17.6784 16.2787 17.6651C16.2474 17.6642 16.2163 17.6635 16.185 17.6632ZM27.3007 22.7124C27.0678 22.9824 26.7941 23.242 26.4953 23.4883C25.4817 24.3237 24.0974 25.0307 22.6101 25.3869C21.123 25.7432 19.5187 25.7494 18.1214 25.0871C16.1863 24.1696 13.9611 23.4931 11.0325 23.5144C10.5816 23.5178 10.1388 23.4201 9.76867 23.2128C9.87686 24.12 10.4305 24.8958 11.4307 24.8882C14.332 24.8665 16.0369 25.5683 18.1037 26.3127C21.3538 27.4833 27.3007 25.666 27.3007 23.572V22.7124Z" fill="#FBB13C"/>
</svg>
