<svg width="48" height="44" viewBox="0 0 48 44" fill="none" xmlns="http://www.w3.org/2000/svg">
<path d="M47.5 22C47.5 33.8341 37.0205 43.5 24 43.5C10.9795 43.5 0.5 33.8341 0.5 22C0.5 10.1659 10.9795 0.5 24 0.5C37.0205 0.5 47.5 10.1659 47.5 22Z" fill="white" stroke="#007CBE"/>
<path d="M18.0588 9.00006C15.6413 9.00106 13.3702 9.62659 12.3221 10.74C10.586 12.5844 12.3923 15.5822 11.0353 20.1165C10.5474 21.7467 15.2368 25.5804 17.9561 28.5759C17.7912 28.1343 17.7683 27.6534 17.8906 27.1985V27.1601L17.9172 27.0799C18.9115 24.1003 18.6359 22.5222 17.8464 20.0885C17.5522 19.1819 17.6072 18.3183 17.9472 17.5884C18.2873 16.8586 18.8875 16.273 19.6252 15.8135C21.1007 14.8946 23.148 14.4403 25.1937 14.3821C25.4485 14.3747 25.7035 14.3736 25.9584 14.3787C27.2855 14.4061 28.5814 14.6059 29.6913 15.0047C29.3633 14.6677 28.9922 14.3283 28.5957 13.9881C26.2253 12.6406 19.7877 12.962 16.8127 14.8878C18.6855 12.4204 23.3134 11.1947 27.2646 12.9124C26.7969 12.5518 26.3166 12.1948 25.8415 11.8453C23.5129 10.4645 17.005 10.776 14.009 12.7153C15.8326 10.3129 20.2695 9.08625 24.1494 10.6092C22.5208 9.50385 20.2312 8.99911 18.0588 9.00006ZM25.5796 15.4177C25.4609 15.4181 25.3426 15.4196 25.2239 15.423C23.3224 15.4772 21.4187 15.9316 20.1916 16.6958C19.5781 17.0778 19.1396 17.5262 18.9084 18.0225C18.677 18.5189 18.6284 19.0721 18.8551 19.7713C19.6589 22.2484 19.9626 24.2206 18.949 27.3154V27.3275L18.9225 27.406C18.849 27.6258 18.8543 28.0698 19.025 28.3807C19.1958 28.6914 19.4611 28.9315 20.1436 28.9315C20.5571 28.9315 21.1058 28.9304 21.6146 28.9298C22.8514 28.0078 24.2965 26.9669 25.3741 26.1419C25.9473 25.7032 26.6641 25.6052 27.307 25.6224C27.9499 25.6397 28.5195 25.7693 28.9248 25.9607C30.0419 26.4875 31.0249 26.833 32.04 27.0835C32.0319 27.0293 32.0208 26.9826 32.0082 26.9457C31.0893 24.2691 30.6426 21.9032 31.532 19.2622C31.7631 18.576 31.715 18.0546 31.4931 17.5971C31.2711 17.1397 30.8465 16.7307 30.2399 16.3924C29.1784 15.8006 27.5897 15.4607 25.9352 15.4213C25.8167 15.4186 25.6981 15.4173 25.5796 15.4177ZM27.185 26.6632C27.1538 26.6632 27.1236 26.6641 27.0929 26.6651C26.6641 26.6788 26.2635 26.7814 26.0238 26.965C24.6435 28.0216 22.7048 29.4036 21.3634 30.4345C21.0989 30.6376 21.0131 30.7984 20.9916 30.8825C20.9701 30.9667 20.9777 31.0033 21.0377 31.0865C21.1575 31.2531 21.5922 31.475 22.0235 31.4718C25.1231 31.4492 27.5398 32.1802 29.5797 33.1473C30.6859 33.6717 32.0406 33.6897 33.3588 33.3739C34.6768 33.0582 35.9437 32.4082 36.8155 31.6897C37.6873 30.9712 38.0803 30.2051 38.0086 29.7963C37.9726 29.5918 37.8623 29.4063 37.5129 29.2017C37.1635 28.9973 36.5747 28.8104 35.7181 28.7189C32.9205 28.4202 30.963 28.0772 28.4681 26.9004C28.2796 26.8115 27.7746 26.6784 27.2787 26.6651C27.2474 26.6642 27.2163 26.6635 27.185 26.6632ZM38.3007 31.7124C38.0678 31.9824 37.7941 32.242 37.4953 32.4883C36.4817 33.3237 35.0974 34.0307 33.6101 34.3869C32.123 34.7432 30.5187 34.7494 29.1214 34.0871C27.1863 33.1696 24.9611 32.4931 22.0325 32.5144C21.5816 32.5178 21.1388 32.4201 20.7687 32.2128C20.8769 33.12 21.4305 33.8958 22.4307 33.8882C25.332 33.8665 27.0369 34.5683 29.1037 35.3127C32.3538 36.4833 38.3007 34.666 38.3007 32.572V31.7124Z" fill="#007CBE"/>
</svg>
