<svg width="48" height="44" viewBox="0 0 48 44" fill="none" xmlns="http://www.w3.org/2000/svg">
<path d="M47.5 22C47.5 33.8341 37.0205 43.5 24 43.5C10.9795 43.5 0.5 33.8341 0.5 22C0.5 10.1659 10.9795 0.5 24 0.5C37.0205 0.5 47.5 10.1659 47.5 22Z" fill="white" stroke="#007CBE"/>
<path d="M38.9958 17.0974C38.9708 15.1819 38.9643 14.6667 38.3318 14.1853L38.3058 14.1658C38.0288 13.9436 37.3123 13.5442 37.0168 13.3834C33.1058 11.1722 28.7178 10 24.3408 10C23.4713 10 22.7903 10.0444 22.3393 10.0746C22.1448 10.0873 21.9988 10.0979 21.9063 10.0979C20.9053 10.0979 20.3958 10.4502 19.9968 10.7797C19.9598 10.8104 19.9273 10.8406 19.8918 10.8633C19.8638 10.8786 19.8303 10.8898 19.7973 10.9035C19.2893 11.1109 18.7773 11.441 18.4733 12.4439C18.3693 12.7883 17.6448 13.1348 17.3608 13.1348C16.6598 13.1348 16.1378 13.5463 15.6778 13.9092C15.5173 14.0362 15.3513 14.1668 15.1798 14.2806C14.5898 14.6694 14.3758 15.0116 14.2378 15.4533C14.1753 15.4473 14.1126 15.4441 14.0498 15.4438C13.7913 15.4438 13.5628 15.5083 13.3683 15.6353C12.7753 15.7845 12.4178 16.2002 12.1573 17.0318C12.0206 16.9704 11.8734 16.9389 11.7248 16.9392C11.1693 16.9392 10.7728 17.3529 10.4233 17.7179C10.3158 17.8295 10.2048 17.9459 10.1208 18.0162C10.0908 18.0416 10.0598 18.0549 9.97184 18.0898C9.72384 18.1871 8.97084 18.4839 9.01684 19.6386C9.04284 20.2634 9.01634 21.8265 9.01634 21.8424C9.01634 22.6047 9.81034 23.0358 9.81184 23.5711C9.81284 23.8637 9.12184 23.8584 9.12184 25.2321C9.12184 25.5807 9.14384 28.6626 9.14384 29.0266C9.14384 30.0919 10.0698 30.5527 9.61284 30.6093C9.05584 30.6791 8.97434 31.8296 9.00584 32.7242C9.01084 32.8553 9.01534 32.9754 9.01534 33.0706C9.01434 33.8996 9.57584 34.3333 10.1308 34.3333C10.3548 34.3333 10.5488 34.2688 10.7043 34.2164C10.7603 34.1979 10.8448 34.1699 10.8768 34.1656C11.1393 34.1291 16.7153 33.2637 17.1428 33.1616C17.5258 33.0706 17.6023 32.2105 18.3733 32.083C18.8423 32.0058 19.1278 32.7972 19.6773 32.7972C19.7918 32.7972 25.6308 31.8455 26.3503 31.7238C27.3983 31.5461 26.9883 30.9039 27.5528 30.8653C27.8698 30.8436 28.3993 31.2869 28.9428 31.2869C29.1723 31.2869 29.4473 31.2557 29.8913 31.1801C30.8383 31.0171 37.3563 29.9771 37.4223 29.9666C37.4843 29.9554 37.5228 29.9512 37.5578 29.947C38.8623 29.7893 38.8623 28.5938 38.8623 27.8797C38.8623 27.1751 38.8893 25.5538 38.9183 23.8361C38.9628 21.2584 39.0113 18.3379 38.9958 17.0974ZM37.9253 27.8792C37.9253 29.0615 37.7383 28.9012 37.2838 28.9837C37.2838 28.9837 30.7053 30.0332 29.7428 30.1998C29.3728 30.2628 29.1253 30.294 28.9438 30.294C28.8843 30.294 28.8353 30.2882 28.7878 30.2818C28.2868 30.1623 28.5783 29.1905 27.5833 29.3926C26.4908 29.6143 26.3498 30.7468 26.3478 30.7659C26.2598 30.8082 26.1188 30.8293 25.8113 30.8627C25.0423 30.9441 21.2013 31.5689 20.3288 31.7133C20.1638 31.6477 19.9483 31.5123 19.6673 31.2552C18.7288 30.3987 17.6833 30.3987 17.3228 31.106C16.9618 31.8132 16.7913 32.0116 16.4243 32.2978C16.0768 32.3814 11.1563 33.1262 10.7558 33.1817C10.5208 33.214 10.2858 33.3415 10.1308 33.3415C10.0213 33.3415 9.95234 33.2775 9.95234 33.0712C9.95234 32.6533 9.88284 31.8228 10.0013 31.4969C10.2078 31.3737 10.8008 31.6006 10.8303 30.7664C10.8668 29.7581 10.1153 29.0038 10.1113 28.9996C10.0753 28.7478 10.0583 28.4935 10.0603 28.2389C10.0603 26.9164 10.0243 25.5876 10.0918 25.0962C10.2663 24.7111 10.6553 24.7053 11.0828 24.2916C11.6608 23.7314 11.6958 22.5407 10.8323 22.4624C10.4413 22.4259 10.2253 22.3523 10.0993 22.2809C10.0023 22.1654 9.95019 22.0154 9.95334 21.8609C9.95334 21.8609 9.98084 20.2586 9.95334 19.5974C9.92684 18.934 10.2748 19.1552 10.7023 18.796C11.0643 18.4929 11.4638 17.9337 11.7243 17.9332C11.7718 17.9332 11.8148 17.9522 11.8523 17.9951C11.9678 18.1279 12.1638 18.286 12.3718 18.286C12.5968 18.286 12.8353 18.1009 13.0018 17.4984C13.3233 16.3383 13.5903 16.7245 13.8313 16.5044C13.8868 16.4536 13.9628 16.4383 14.0498 16.4383C14.1863 16.4383 14.3503 16.4769 14.5073 16.4769C14.6813 16.4769 14.8463 16.4293 14.9548 16.2283C15.2233 15.7316 15.0078 15.566 15.6768 15.1248C16.2393 14.7529 16.6508 14.3102 17.1013 14.1769C17.6598 14.3424 18.2908 14.6445 19.5163 13.3786C20.1098 12.7655 19.1608 12.8549 19.6828 12.1271C19.9018 11.879 20.1463 11.8546 20.3568 11.7282C20.6778 11.5351 20.9183 11.0929 21.9073 11.0929C22.2218 11.0929 23.0813 10.995 24.3418 10.995C25.3658 10.995 26.6598 11.0633 28.1393 11.2981C28.5383 11.4145 33.4948 12.8729 35.4983 14.1324C36.8903 15.0063 36.9638 15.1296 36.7833 15.402C36.6028 15.6755 36.1603 15.6395 32.7248 16.4145C32.0843 16.5578 31.6078 16.5996 31.6248 16.7673C31.6428 16.935 32.6168 16.6753 33.6268 16.5906C34.6363 16.5065 37.5758 15.8553 37.7923 16.1341C37.9018 16.2754 38.0463 17.392 38.0608 18.1554C38.0453 20.914 37.9253 26.3626 37.9253 27.8792Z" fill="#007CBE"/>
<path d="M26.7548 17.9898C26.2943 17.7946 26.4298 17.0413 26.6053 17.2228C26.7813 17.4042 26.8628 17.5989 27.3223 17.5857C27.7823 17.5719 29.9473 16.8736 30.0413 17.2646C30.1358 17.6555 31.1908 18.0596 31.0013 17.7824C30.8128 17.5053 30.9203 17.3064 31.0958 17.0413C31.2713 16.7758 31.4338 16.6213 30.8128 16.5377C30.1898 16.4547 30.0278 16.7054 30.0138 16.8308C30.0003 16.9572 27.9988 17.208 27.6463 17.2646C27.2958 17.3196 27.2143 17.3344 27.1193 17.1947C27.0253 17.0551 27.0378 16.6774 25.7938 16.6774C24.5498 16.6774 24.8878 17.264 25.0363 17.4603C25.1848 17.655 24.7388 17.7396 23.9953 17.8364C23.2508 17.9348 16.2313 19.052 15.9473 19.0795C15.6628 19.1076 14.9473 18.6331 14.5543 18.8573C14.1623 19.0795 14.3648 19.3736 13.9043 19.4429C13.7023 19.4731 11.0698 19.8756 10.6593 19.9465C9.33231 20.1724 11.7788 20.0634 12.6038 19.9804C13.4288 19.8957 14.7843 19.9396 15.0553 19.6603C15.3263 19.381 15.7668 19.4752 16.1598 19.4842C16.5508 19.4927 24.5633 18.0184 25.0228 17.9353C25.4833 17.8517 25.4833 18.4241 25.9158 18.55C26.3488 18.6748 27.2143 18.1861 26.7548 17.9898ZM18.5913 20.9812C17.3938 20.6564 15.7068 21.2108 15.1698 22.8179C15.0358 23.2183 14.9703 23.6838 15.0058 24.2186C15.1853 26.9027 19.0388 26.0701 19.7558 24.2186C20.2608 22.9173 20.3058 22.082 19.7043 21.534C19.4508 21.3028 19.0958 21.1182 18.5913 20.9812ZM26.7608 21.9784C26.4198 22.5068 26.2663 23.0998 26.4908 23.7155C26.8223 24.6222 27.8698 25.1581 28.9598 25.1581C30.4788 25.1581 32.0913 23.3812 31.6963 22.4888C30.6303 20.0809 27.3633 21.0463 26.7608 21.9784ZM21.1428 28.24C20.9283 29.3646 21.9873 29.884 23.0773 29.884C24.5963 29.884 25.7188 28.8107 25.3243 27.9183C24.2578 25.5109 21.4038 26.8736 21.1428 28.24ZM14.0658 27.9892C12.8058 27.9892 11.8743 28.8562 12.2018 29.5756C13.0868 31.5191 15.4538 30.4199 15.6708 29.3164C15.8488 28.4092 14.9703 27.9892 14.0658 27.9892ZM34.7218 24.9608C33.5413 24.9608 32.6683 26.0309 32.9748 26.9201C33.8038 29.3191 36.0228 27.9617 36.2258 26.6001C36.3923 25.4792 35.5688 24.9608 34.7218 24.9608ZM35.8148 18.8769C35.2678 17.656 32.6283 17.729 32.3668 19.0949C32.1518 20.219 33.2108 20.7395 34.3008 20.7395C35.8198 20.7395 36.2133 19.7667 35.8148 18.8769ZM29.8463 15.6311C31.3653 15.6311 32.5743 15.375 32.1758 14.4848C31.6288 13.2639 29.2308 13.2898 28.3518 14.444C27.6723 15.3375 28.7568 15.6311 29.8463 15.6311ZM19.3678 17.4777C20.8868 17.4777 22.0963 17.2217 21.6978 16.3314C21.1508 15.1105 18.7523 15.1365 17.8738 16.2907C17.1938 17.1842 18.2783 17.4777 19.3678 17.4777ZM23.7658 14.198C25.2848 14.198 26.1978 13.8357 25.6408 13.0464C24.9378 12.0488 23.3263 12.4365 22.2713 13.0115C21.3083 13.5363 22.6758 14.198 23.7658 14.198Z" fill="#007CBE"/>
</svg>
