<svg width="30" height="25" viewBox="0 0 30 25" fill="none" xmlns="http://www.w3.org/2000/svg"> <path d="M29.9958 7.0974C29.9708 5.18194 29.9643 4.66671 29.3318 4.18533L29.3058 4.16576C29.0288 3.94359 28.3123 3.5442 28.0168 3.38339C24.1058 1.17223 19.7178 0 15.3408 0C14.4713 0 13.7903 0.0444347 13.3393 0.0745868C13.1448 0.0872825 12.9988 0.0978625 12.9063 0.0978625C11.9053 0.0978625 11.3958 0.450167 10.9968 0.779725C10.9598 0.810406 10.9273 0.840558 10.8918 0.863304C10.8638 0.878645 10.8303 0.889754 10.7973 0.903507C10.2893 1.11087 9.77734 1.44096 9.47334 2.44391C9.36934 2.78828 8.64484 3.13477 8.36084 3.13477C7.65984 3.13477 7.13784 3.54632 6.67784 3.9092C6.51734 4.03616 6.35134 4.16682 6.17984 4.28055C5.58984 4.66935 5.37584 5.01161 5.23784 5.45331C5.17533 5.44731 5.1126 5.44413 5.04984 5.44379C4.79134 5.44379 4.56284 5.50833 4.36834 5.63528C3.77534 5.78446 3.41784 6.20024 3.15734 7.0318C3.02056 6.97036 2.87343 6.93887 2.72484 6.93923C2.16934 6.93923 1.77284 7.3529 1.42334 7.7179C1.31584 7.82951 1.20484 7.94589 1.12084 8.01625C1.09084 8.04164 1.05984 8.05486 0.971835 8.08978C0.723835 8.18711 -0.0291646 8.48387 0.0168354 9.63865C0.0428354 10.2634 0.0163355 11.8265 0.0163355 11.8424C0.0163355 12.6047 0.810335 13.0358 0.811835 13.5711C0.812835 13.8637 0.121835 13.8584 0.121835 15.2321C0.121835 15.5807 0.143835 18.6626 0.143835 19.0266C0.143835 20.0919 1.06984 20.5527 0.612835 20.6093C0.0558354 20.6791 -0.0256646 21.8296 0.00583539 22.7242C0.0108354 22.8553 0.0153354 22.9754 0.0153354 23.0706C0.0143354 23.8996 0.575835 24.3333 1.13084 24.3333C1.35484 24.3333 1.54884 24.2688 1.70434 24.2164C1.76034 24.1979 1.84484 24.1699 1.87684 24.1656C2.13934 24.1291 7.71534 23.2637 8.14284 23.1616C8.52584 23.0706 8.60234 22.2105 9.37334 22.083C9.84234 22.0058 10.1278 22.7972 10.6773 22.7972C10.7918 22.7972 16.6308 21.8455 17.3503 21.7238C18.3983 21.5461 17.9883 20.9039 18.5528 20.8653C18.8698 20.8436 19.3993 21.2869 19.9428 21.2869C20.1723 21.2869 20.4473 21.2557 20.8913 21.1801C21.8383 21.0171 28.3563 19.9771 28.4223 19.9666C28.4843 19.9554 28.5228 19.9512 28.5578 19.947C29.8623 19.7893 29.8623 18.5938 29.8623 17.8797C29.8623 17.1751 29.8893 15.5538 29.9183 13.8361C29.9628 11.2584 30.0113 8.33787 29.9958 7.0974ZM28.9253 17.8792C28.9253 19.0615 28.7383 18.9012 28.2838 18.9837C28.2838 18.9837 21.7053 20.0332 20.7428 20.1998C20.3728 20.2628 20.1253 20.294 19.9438 20.294C19.8843 20.294 19.8353 20.2882 19.7878 20.2818C19.2868 20.1623 19.5783 19.1905 18.5833 19.3926C17.4908 19.6143 17.3498 20.7468 17.3478 20.7659C17.2598 20.8082 17.1188 20.8293 16.8113 20.8627C16.0423 20.9441 12.2013 21.5689 11.3288 21.7133C11.1638 21.6477 10.9483 21.5123 10.6673 21.2552C9.72884 20.3987 8.68334 20.3987 8.32284 21.106C7.96184 21.8132 7.79134 22.0116 7.42434 22.2978C7.07684 22.3814 2.15634 23.1262 1.75584 23.1817C1.52084 23.214 1.28584 23.3415 1.13084 23.3415C1.02134 23.3415 0.952335 23.2775 0.952335 23.0712C0.952335 22.6533 0.882836 21.8228 1.00134 21.4969C1.20784 21.3737 1.80084 21.6006 1.83034 20.7664C1.86684 19.7581 1.11534 19.0038 1.11134 18.9996C1.07533 18.7478 1.05827 18.4935 1.06034 18.2389C1.06034 16.9164 1.02434 15.5876 1.09184 15.0962C1.26634 14.7111 1.65534 14.7053 2.08284 14.2916C2.66084 13.7314 2.69584 12.5407 1.83234 12.4624C1.44134 12.4259 1.22534 12.3523 1.09934 12.2809C1.00234 12.1654 0.950192 12.0154 0.953335 11.8609C0.953335 11.8609 0.980835 10.2586 0.953335 9.59738C0.926835 8.93404 1.27484 9.15515 1.70234 8.79597C2.06434 8.49286 2.46384 7.93372 2.72434 7.9332C2.77184 7.9332 2.81484 7.95224 2.85234 7.99509C2.96784 8.12786 3.16384 8.28603 3.37184 8.28603C3.59684 8.28603 3.83534 8.10088 4.00184 7.49837C4.32334 6.3383 4.59034 6.72446 4.83134 6.50441C4.88684 6.45362 4.96284 6.43828 5.04984 6.43828C5.18634 6.43828 5.35034 6.4769 5.50734 6.4769C5.68134 6.4769 5.84634 6.42929 5.95484 6.22828C6.22334 5.73156 6.00784 5.56599 6.67684 5.12481C7.23934 4.75293 7.65084 4.31017 8.10134 4.17687C8.65984 4.34244 9.29084 4.64449 10.5163 3.37863C11.1098 2.76554 10.1608 2.85493 10.6828 2.12705C10.9018 1.87896 11.1463 1.85462 11.3568 1.7282C11.6778 1.53512 11.9183 1.09288 12.9073 1.09288C13.2218 1.09288 14.0813 0.995022 15.3418 0.995022C16.3658 0.995022 17.6598 1.06326 19.1393 1.29813C19.5383 1.41451 24.4948 2.87292 26.4983 4.13243C27.8903 5.00632 27.9638 5.12957 27.7833 5.402C27.6028 5.67549 27.1603 5.63951 23.7248 6.41448C23.0843 6.55783 22.6078 6.59962 22.6248 6.76731C22.6428 6.935 23.6168 6.67527 24.6268 6.59063C25.6363 6.50652 28.5758 5.85534 28.7923 6.13412C28.9018 6.27536 29.0463 7.39204 29.0608 8.15537C29.0453 10.914 28.9253 16.3626 28.9253 17.8792Z" fill="#FBB13C"/> <path d="M17.7548 7.98981C17.2943 7.79461 17.4298 7.04134 17.6053 7.22278C17.7813 7.40422 17.8628 7.59889 18.3223 7.58566C18.7823 7.57191 20.9473 6.87365 21.0413 7.26457C21.1358 7.65549 22.1908 8.05963 22.0013 7.78245C21.8128 7.50526 21.9203 7.30636 22.0958 7.04134C22.2713 6.77579 22.4338 6.62132 21.8128 6.53774C21.1898 6.45469 21.0278 6.70543 21.0138 6.8308C21.0003 6.95723 18.9988 7.20797 18.6463 7.26457C18.2958 7.31958 18.2143 7.33439 18.1193 7.19474C18.0253 7.05509 18.0378 6.67739 16.7938 6.67739C15.5498 6.67739 15.8878 7.26404 16.0363 7.46029C16.1848 7.65496 15.7388 7.7396 14.9953 7.8364C14.2508 7.93479 7.23131 9.05201 6.94731 9.07952C6.66281 9.10755 5.94731 8.63305 5.55431 8.85734C5.16231 9.07952 5.36481 9.37363 4.90431 9.44293C4.70231 9.47308 2.06981 9.87564 1.65931 9.94652C0.332313 10.1724 2.77881 10.0634 3.60381 9.98038C4.42881 9.89574 5.78431 9.93965 6.05531 9.66034C6.32631 9.38104 6.76681 9.4752 7.15981 9.48419C7.55081 9.49266 15.5633 8.01837 16.0228 7.93532C16.4833 7.85174 16.4833 8.4241 16.9158 8.55C17.3488 8.67484 18.2143 8.18606 17.7548 7.98981ZM9.59131 10.9812C8.39381 10.6564 6.70681 11.2108 6.16981 12.8179C6.03581 13.2183 5.97031 13.6838 6.00581 14.2186C6.18531 16.9027 10.0388 16.0701 10.7558 14.2186C11.2608 12.9173 11.3058 12.082 10.7043 11.534C10.4508 11.3028 10.0958 11.1182 9.59131 10.9812ZM17.7608 11.9784C17.4198 12.5068 17.2663 13.0998 17.4908 13.7155C17.8223 14.6222 18.8698 15.1581 19.9598 15.1581C21.4788 15.1581 23.0913 13.3812 22.6963 12.4888C21.6303 10.0809 18.3633 11.0463 17.7608 11.9784ZM12.1428 18.24C11.9283 19.3646 12.9873 19.884 14.0773 19.884C15.5963 19.884 16.7188 18.8107 16.3243 17.9183C15.2578 15.5109 12.4038 16.8736 12.1428 18.24ZM5.06581 17.9892C3.80581 17.9892 2.87431 18.8562 3.20181 19.5756C4.08681 21.5191 6.45381 20.4199 6.67081 19.3164C6.84881 18.4092 5.97031 17.9892 5.06581 17.9892ZM25.7218 14.9608C24.5413 14.9608 23.6683 16.0309 23.9748 16.9201C24.8038 19.3191 27.0228 17.9617 27.2258 16.6001C27.3923 15.4792 26.5688 14.9608 25.7218 14.9608ZM26.8148 8.87692C26.2678 7.65602 23.6283 7.72902 23.3668 9.09486C23.1518 10.219 24.2108 10.7395 25.3008 10.7395C26.8198 10.7395 27.2133 9.76667 26.8148 8.87692ZM20.8463 5.63106C22.3653 5.63106 23.5743 5.37503 23.1758 4.48475C22.6288 3.26385 20.2308 3.28977 19.3518 4.44402C18.6723 5.33747 19.7568 5.63106 20.8463 5.63106ZM10.3678 7.47775C11.8868 7.47775 13.0963 7.22172 12.6978 6.33144C12.1508 5.11054 9.75231 5.13646 8.87381 6.29071C8.19381 7.18416 9.27831 7.47775 10.3678 7.47775ZM14.7658 4.19804C16.2848 4.19804 17.1978 3.83568 16.6408 3.04644C15.9378 2.04877 14.3263 2.43652 13.2713 3.01153C12.3083 3.53628 13.6758 4.19804 14.7658 4.19804Z" fill="#FBB13C"/> </svg>