<svg width="32" height="32" viewBox="0 0 32 32" fill="none" xmlns="http://www.w3.org/2000/svg">
<path d="M29.5 9.28951H23.04C23.0445 8.33101 22.2395 7.43851 21.06 7.02251L23.116 1.71951C23.122 1.70501 23.1275 1.68901 23.1325 1.67451C23.2325 1.37751 23.1235 1.08251 22.8895 1.01551C22.6555 0.945014 22.3855 1.13001 22.286 1.42551L20.329 6.83751C20.287 6.83051 20.246 6.82201 20.203 6.81601C18.4665 6.58551 16.916 7.42151 16.738 8.68401C16.709 8.88851 16.722 9.09151 16.765 9.28951H2.5C2.5 9.28951 12.0475 19.976 15.39 21.3815C15.3765 22.438 15.305 26.2395 14.9645 27.872C13.125 29.491 9.261 30.5615 9.234 30.573C9.153 30.605 9.102 30.708 9.115 30.814C9.128 30.92 9.2015 31 9.287 31H22.713C22.7985 31 22.872 30.921 22.885 30.8155C22.8985 30.71 22.8495 30.6065 22.767 30.5735C22.7415 30.562 18.8635 29.46 17.0415 27.8715C16.71 26.238 16.64 22.4215 16.627 21.374C19.983 19.9415 29.5 9.28951 29.5 9.28951ZM16.9935 8.71701C17.1055 7.92401 17.6895 7.34801 18.2985 7.42901C18.907 7.51001 19.311 8.21801 19.199 9.01001C19.1855 9.10651 19.1645 9.20001 19.1375 9.28951H17.002C16.9695 9.10027 16.9667 8.90714 16.9935 8.71701ZM16 20.371C13.9285 20.371 5.0695 10.4545 5.0695 10.4545H17.469C17.8085 10.7685 18.248 11.026 18.753 11.1965L18.156 12.8485C16.858 12.365 15.512 12.6025 14.927 13.513C14.2335 14.593 14.875 16.1995 16.3615 17.1005C16.4325 17.1435 16.5065 17.173 16.5785 17.211L15.6555 19.7635L16.0645 19.908L17.0285 17.422C18.3425 17.9315 19.7165 17.697 20.309 16.775C21.0035 15.695 20.361 14.0885 18.8745 13.1875C18.819 13.154 18.7605 13.1315 18.704 13.1005L19.381 11.355C19.4405 11.3655 19.499 11.3775 19.56 11.386C20.815 11.5535 21.97 11.1605 22.5825 10.4545H26.9315C26.931 10.4545 18.073 20.371 16 20.371ZM19.9345 14.842C20.456 15.1585 20.5255 15.964 20.09 16.6425C19.654 17.322 18.878 17.615 18.357 17.298C17.835 16.9825 17.7655 16.176 18.201 15.4975C18.6365 14.8195 19.413 14.5265 19.9345 14.842Z" fill="#FBB13C"/>
</svg>
