<svg width="48" height="44" viewBox="0 0 48 44" fill="none" xmlns="http://www.w3.org/2000/svg">
<path d="M47.5 22C47.5 33.8341 37.0205 43.5 24 43.5C10.9795 43.5 0.5 33.8341 0.5 22C0.5 10.1659 10.9795 0.5 24 0.5C37.0205 0.5 47.5 10.1659 47.5 22Z" fill="white" stroke="#007CBE"/>
<path d="M37.5 15.2895H31.04C31.0445 14.331 30.2395 13.4385 29.06 13.0225L31.116 7.71951C31.122 7.70501 31.1275 7.68901 31.1325 7.67451C31.2325 7.37751 31.1235 7.08251 30.8895 7.01551C30.6555 6.94501 30.3855 7.13001 30.286 7.42551L28.329 12.8375C28.287 12.8305 28.246 12.822 28.203 12.816C26.4665 12.5855 24.916 13.4215 24.738 14.684C24.709 14.8885 24.722 15.0915 24.765 15.2895H10.5C10.5 15.2895 20.0475 25.976 23.39 27.3815C23.3765 28.438 23.305 32.2395 22.9645 33.872C21.125 35.491 17.261 36.5615 17.234 36.573C17.153 36.605 17.102 36.708 17.115 36.814C17.128 36.92 17.2015 37 17.287 37H30.713C30.7985 37 30.872 36.921 30.885 36.8155C30.8985 36.71 30.8495 36.6065 30.767 36.5735C30.7415 36.562 26.8635 35.46 25.0415 33.8715C24.71 32.238 24.64 28.4215 24.627 27.374C27.983 25.9415 37.5 15.2895 37.5 15.2895ZM24.9935 14.717C25.1055 13.924 25.6895 13.348 26.2985 13.429C26.907 13.51 27.311 14.218 27.199 15.01C27.1855 15.1065 27.1645 15.2 27.1375 15.2895H25.002C24.9695 15.1003 24.9667 14.9071 24.9935 14.717M24 26.371C21.9285 26.371 13.0695 16.4545 13.0695 16.4545H25.469C25.8085 16.7685 26.248 17.026 26.753 17.1965L26.156 18.8485C24.858 18.365 23.512 18.6025 22.927 19.513C22.2335 20.593 22.875 22.1995 24.3615 23.1005C24.4325 23.1435 24.5065 23.173 24.5785 23.211L23.6555 25.7635L24.0645 25.908L25.0285 23.422C26.3425 23.9315 27.7165 23.697 28.309 22.775C29.0035 21.695 28.361 20.0885 26.8745 19.1875C26.819 19.154 26.7605 19.1315 26.704 19.1005L27.381 17.355C27.4405 17.3655 27.499 17.3775 27.56 17.386C28.815 17.5535 29.97 17.1605 30.5825 16.4545H34.9315C34.931 16.4545 26.073 26.371 24 26.371M27.9345 20.842C28.456 21.1585 28.5255 21.964 28.09 22.6425C27.654 23.322 26.878 23.615 26.357 23.298C25.835 22.9825 25.7655 22.176 26.201 21.4975C26.6365 20.8195 27.413 20.5265 27.9345 20.842Z" fill="#007CBE"/>
</svg>
