<svg width="23" height="29" viewBox="0 0 23 29" fill="none" xmlns="http://www.w3.org/2000/svg">
<mask id="mask0_45_1590" style="mask-type:alpha" maskUnits="userSpaceOnUse" x="0" y="0" width="23" height="29">
<path fill-rule="evenodd" clip-rule="evenodd" d="M11.2704 26.0512C17.2104 26.0512 20.5408 21.8699 20.5408 15.2282C20.5408 8.58642 15.4027 2 11.2704 2C7.13812 2 2 8.58642 2 15.2282C2 21.8699 5.33039 26.0512 11.2704 26.0512Z" fill="white" stroke="white" stroke-width="4"/>
<path d="M9.53215 22.4435C9.99315 22.4435 10.4353 22.2534 10.7612 21.9152C11.0872 21.5769 11.2703 21.1181 11.2703 20.6397C11.2703 20.1612 11.0872 19.7024 10.7612 19.3641C10.4353 19.0259 9.99315 18.8358 9.53215 18.8358C9.07115 18.8358 8.62903 19.0259 8.30305 19.3641C7.97708 19.7024 7.79395 20.1612 7.79395 20.6397C7.79395 21.1181 7.97708 21.5769 8.30305 21.9152C8.62903 22.2534 9.07115 22.4435 9.53215 22.4435Z" fill="black"/>
<path fill-rule="evenodd" clip-rule="evenodd" d="M6.63488 17.4337C6.94221 17.4337 7.23695 17.307 7.45427 17.0815C7.67159 16.8559 7.79368 16.5501 7.79368 16.2311C7.79368 15.9122 7.67159 15.6063 7.45427 15.3808C7.23695 15.1553 6.94221 15.0286 6.63488 15.0286C6.32754 15.0286 6.0328 15.1553 5.81548 15.3808C5.59816 15.6063 5.47607 15.9122 5.47607 16.2311C5.47607 16.5501 5.59816 16.8559 5.81548 17.0815C6.0328 17.307 6.32754 17.4337 6.63488 17.4337Z" fill="black"/>
</mask>
<g mask="url(#mask0_45_1590)">
<path d="M-2.63525 -0.40509H25.176V28.4564H-2.63525V-0.40509Z" fill="#FBB13C"/>
</g>
<path d="M17.5887 11.2969C16.1754 12.4304 17.1446 9.31311 15.7357 7.55644C14.3269 5.79976 11.0736 6.0689 12.4869 4.93543C14.8932 5.76688 14.5701 5.14316 15.9789 6.89983C17.3877 8.6565 17.3597 9.08018 17.5887 11.2969Z" fill="white"/>
</svg>
