<svg width="48" height="44" viewBox="0 0 48 44" fill="none" xmlns="http://www.w3.org/2000/svg">
<path d="M47.5 22C47.5 33.8341 37.0205 43.5 24 43.5C10.9795 43.5 0.5 33.8341 0.5 22C0.5 10.1659 10.9795 0.5 24 0.5C37.0205 0.5 47.5 10.1659 47.5 22Z" fill="white" stroke="#007CBE"/>
<mask id="mask0_45_1590" style="mask-type:alpha" maskUnits="userSpaceOnUse" x="13" y="8" width="23" height="29">
<path fill-rule="evenodd" clip-rule="evenodd" d="M24.2704 34.0512C30.2104 34.0512 33.5408 29.8699 33.5408 23.2282C33.5408 16.5864 28.4027 10 24.2704 10C20.1381 10 15 16.5864 15 23.2282C15 29.8699 18.3304 34.0512 24.2704 34.0512Z" fill="white" stroke="white" stroke-width="4"/>
<path d="M22.5321 30.4435C22.9931 30.4435 23.4353 30.2534 23.7612 29.9152C24.0872 29.5769 24.2703 29.1181 24.2703 28.6397C24.2703 28.1612 24.0872 27.7024 23.7612 27.3641C23.4353 27.0259 22.9931 26.8358 22.5321 26.8358C22.0711 26.8358 21.629 27.0259 21.3031 27.3641C20.9771 27.7024 20.7939 28.1612 20.7939 28.6397C20.7939 29.1181 20.9771 29.5769 21.3031 29.9152C21.629 30.2534 22.0711 30.4435 22.5321 30.4435Z" fill="black"/>
<path fill-rule="evenodd" clip-rule="evenodd" d="M19.6349 25.4337C19.9422 25.4337 20.237 25.307 20.4543 25.0815C20.6716 24.8559 20.7937 24.5501 20.7937 24.2311C20.7937 23.9122 20.6716 23.6063 20.4543 23.3808C20.237 23.1553 19.9422 23.0286 19.6349 23.0286C19.3275 23.0286 19.0328 23.1553 18.8155 23.3808C18.5982 23.6063 18.4761 23.9122 18.4761 24.2311C18.4761 24.5501 18.5982 24.8559 18.8155 25.0815C19.0328 25.307 19.3275 25.4337 19.6349 25.4337Z" fill="black"/>
</mask>
<g mask="url(#mask0_45_1590)">
<path d="M10.3647 7.59491H38.176V36.4564H10.3647V7.59491Z" fill="#007CBE"/>
</g>
<path d="M30.5887 19.2969C29.1754 20.4304 30.1446 17.3131 28.7357 15.5564C27.3269 13.7998 24.0736 14.0689 25.4869 12.9354C27.8932 13.7669 27.5701 13.1432 28.9789 14.8998C30.3877 16.6565 30.3597 17.0802 30.5887 19.2969Z" fill="white"/>
</svg>
