<svg width="34" height="40" viewBox="0 0 34 40" fill="none" xmlns="http://www.w3.org/2000/svg">
<rect width="34" height="40" rx="12" fill="#00AF54"/>
<g clip-path="url(#clip0_184_113)">
<path d="M22.9675 31.687L22.9675 15.2244M22.9675 12.2313L22.9675 7.74145M10.2464 31.687L10.2464 15.2244M10.2464 12.2313L10.2464 7.74145M16.607 24.204L16.607 7.74145M16.607 31.687L16.607 27.1972M25.5117 13.7278C25.5117 14.1248 25.3777 14.5054 25.1391 14.7861C24.9006 15.0668 24.577 15.2244 24.2396 15.2244L21.6954 15.2244C21.358 15.2244 21.0344 15.0668 20.7959 14.7861C20.5573 14.5054 20.4233 14.1248 20.4233 13.7278C20.4233 13.3309 20.5573 12.9503 20.7959 12.6696C21.0344 12.3889 21.358 12.2313 21.6954 12.2313L24.2396 12.2313C24.577 12.2313 24.9006 12.3889 25.1391 12.6696C25.3777 12.9503 25.5117 13.3309 25.5117 13.7278V13.7278ZM12.7906 13.7278C12.7906 14.1248 12.6566 14.5054 12.418 14.7861C12.1795 15.0668 11.8559 15.2244 11.5185 15.2244L8.9743 15.2244C8.63692 15.2244 8.31335 15.0668 8.07479 14.7861C7.83622 14.5054 7.7022 14.1248 7.7022 13.7278C7.7022 13.3309 7.83622 12.9503 8.07479 12.6696C8.31335 12.3889 8.63692 12.2313 8.9743 12.2313L11.5185 12.2313C11.8559 12.2313 12.1795 12.3889 12.418 12.6696C12.6566 12.9503 12.7906 13.3309 12.7906 13.7278ZM19.1512 25.7006C19.1512 26.0976 19.0171 26.4782 18.7786 26.7589C18.54 27.0396 18.2164 27.1972 17.8791 27.1972L15.3348 27.1972C14.9975 27.1972 14.6739 27.0396 14.4353 26.7589C14.1968 26.4782 14.0627 26.0976 14.0627 25.7006C14.0627 25.3037 14.1968 24.9231 14.4353 24.6424C14.6739 24.3617 14.9975 24.204 15.3348 24.204L17.8791 24.204C18.2164 24.204 18.54 24.3617 18.7786 24.6424C19.0171 24.9231 19.1512 25.3037 19.1512 25.7006V25.7006Z" stroke="white" stroke-linecap="round" stroke-linejoin="round"/>
</g>
<defs>
<clipPath id="clip0_184_113">
<rect width="31.4286" height="26.7143" fill="white" transform="translate(30.6001 4) rotate(90)"/>
</clipPath>
</defs>
</svg>
