<svg width="48" height="44" viewBox="0 0 48 44" fill="none" xmlns="http://www.w3.org/2000/svg">
<path d="M47.5 22C47.5 33.8341 37.0205 43.5 24 43.5C10.9795 43.5 0.5 33.8341 0.5 22C0.5 10.1659 10.9795 0.5 24 0.5C37.0205 0.5 47.5 10.1659 47.5 22Z" fill="white" stroke="#007CBE"/>
<path d="M19.2812 14.8325H29.7812V18.6574H28.3119C27.8225 18.0652 27.2346 17.5941 26.5837 17.2726C25.9327 16.9511 25.2323 16.7858 24.5247 16.7868C23.8171 16.7858 23.1167 16.9511 22.4657 17.2726C21.8148 17.5941 21.2269 18.0652 20.7375 18.6574H19.2812V14.8325ZM28.3677 27.0144H29.7812V31.5617H19.2812V27.0144H20.6817C21.1724 27.6269 21.7671 28.1153 22.4284 28.449C23.0897 28.7827 23.8034 28.9544 24.5247 28.9535C25.246 28.9544 25.9597 28.7827 26.621 28.449C27.2823 28.1153 27.8769 27.6269 28.3677 27.0144ZM22.9891 20.7296C22.6711 20.6391 22.3884 20.4278 22.1861 20.1294C21.9839 19.831 21.8738 19.4627 21.8734 19.0833H23.3762C23.8422 19.0833 24.2582 19.3365 24.526 19.7311C24.6633 19.5265 24.8393 19.3609 25.0405 19.2473C25.2416 19.1337 25.4625 19.075 25.6863 19.0757H27.1825C27.1822 19.4583 27.0704 19.8296 26.8651 20.1294C26.6599 20.4292 26.3733 20.6399 26.0518 20.7273C26.6824 20.8727 27.244 21.2844 27.6275 21.8824C28.011 22.4805 28.189 23.2223 28.1271 23.9639C28.0653 24.7056 27.7678 25.3941 27.2925 25.8959C26.8172 26.3978 26.198 26.6772 25.555 26.6798H23.4944C22.0638 26.6798 20.9022 25.3339 20.9022 23.6762C20.9026 22.9812 21.1107 22.3079 21.4911 21.7707C21.8716 21.2335 22.4009 20.8656 22.9891 20.7296Z" fill="#007CBE"/>
<path d="M16 13.6767C16 12.9668 16.2434 12.2859 16.6766 11.784C17.1098 11.282 17.6974 11 18.31 11H30.3194C30.8002 10.9999 31.269 11.1737 31.6606 11.497C32.0521 11.8204 32.3468 12.2773 32.5035 12.804C32.6603 13.3307 32.6713 13.9009 32.5351 14.4352C32.3988 14.9695 32.1221 15.4412 31.7434 15.7845V30.6127C32.0196 30.864 32.2428 31.1848 32.3962 31.5507C32.5497 31.9167 32.6294 32.3182 32.6294 32.7251C32.6294 33.435 32.386 34.1158 31.9528 34.6178C31.5196 35.1198 30.932 35.4018 30.3194 35.4018H18.31C17.6974 35.4018 17.1098 35.1198 16.6766 34.6178C16.2434 34.1158 16 33.435 16 32.7251C16.0003 32.2193 16.1236 31.7238 16.3557 31.2955C16.5879 30.8671 16.9195 30.5232 17.3125 30.3032V16.0918C16.9194 15.8737 16.5875 15.5312 16.3553 15.1038C16.123 14.6765 15.9999 14.1817 16 13.6767ZM30.3194 12.5208H18.31C18.0454 12.5208 17.7917 12.6426 17.6047 12.8594C17.4176 13.0761 17.3125 13.3701 17.3125 13.6767C17.3125 13.9832 17.4176 14.2772 17.6047 14.494C17.7917 14.7107 18.0454 14.8325 18.31 14.8325H18.625V31.5617H18.31C17.7588 31.5617 17.3125 32.0864 17.3125 32.7251C17.3125 33.3639 17.7588 33.8809 18.31 33.8809H30.3194C30.8706 33.8809 31.3169 33.3639 31.3169 32.7251C31.3169 32.132 30.933 31.6377 30.4375 31.5693V14.8249C30.6908 14.7911 30.9233 14.6461 31.0873 14.4198C31.2513 14.1935 31.3342 13.9031 31.3191 13.6081C31.304 13.3132 31.1919 13.0361 31.006 12.8339C30.8201 12.6317 30.5744 12.5197 30.3194 12.5208Z" fill="#007CBE"/>
</svg>
