<svg width="17" height="25" viewBox="0 0 17 25" fill="none" xmlns="http://www.w3.org/2000/svg">
<path d="M3.28125 3.83253H13.7812V7.65743H12.3119C11.8225 7.06522 11.2346 6.59413 10.5837 6.27261C9.93272 5.9511 9.23229 5.78583 8.52469 5.78681C7.81708 5.78583 7.11665 5.9511 6.46572 6.27261C5.81478 6.59413 5.22686 7.06522 4.73747 7.65743H3.28125V3.83253ZM12.3677 16.0144H13.7812V20.5617H3.28125V16.0144H4.68169C5.17243 16.6269 5.7671 17.1153 6.42841 17.449C7.08972 17.7827 7.8034 17.9544 8.52469 17.9535C9.24597 17.9544 9.95965 17.7827 10.621 17.449C11.2823 17.1153 11.8769 16.6269 12.3677 16.0144ZM6.98906 9.72957C6.67106 9.63913 6.38837 9.42784 6.18615 9.12942C5.98393 8.83101 5.87383 8.46268 5.87344 8.08326H7.37625C7.84219 8.08326 8.25825 8.33648 8.526 8.73114C8.66334 8.52645 8.83933 8.36094 9.04045 8.24732C9.24158 8.1337 9.46249 8.07497 9.68625 8.07566H11.1825C11.1822 8.45832 11.0704 8.82964 10.8651 9.12943C10.6599 9.42922 10.3733 9.63989 10.0518 9.72728C10.6824 9.87268 11.244 10.2844 11.6275 10.8824C12.011 11.4805 12.189 12.2223 12.1271 12.9639C12.0653 13.7056 11.7678 14.3941 11.2925 14.8959C10.8172 15.3978 10.198 15.6772 9.555 15.6798H7.49438C6.06375 15.6798 4.90219 14.3339 4.90219 12.6762C4.90257 11.9812 5.11069 11.3079 5.49115 10.7707C5.87161 10.2335 6.40092 9.8656 6.98906 9.72957Z" fill="#FBB13C"/>
<path d="M1.12497e-07 2.67667C1.12497e-07 1.96677 0.243374 1.28595 0.676583 0.783978C1.10979 0.282005 1.69735 3.54204e-08 2.31 3.54204e-08H14.3194C14.8002 -9.05743e-05 15.269 0.173664 15.6606 0.497039C16.0521 0.820414 16.3468 1.27729 16.5035 1.80397C16.6603 2.33066 16.6713 2.90089 16.5351 3.43518C16.3988 3.96947 16.1221 4.44118 15.7434 4.78454V19.6127C16.0196 19.864 16.2428 20.1848 16.3962 20.5507C16.5497 20.9167 16.6294 21.3182 16.6294 21.7251C16.6294 22.435 16.386 23.1158 15.9528 23.6178C15.5196 24.1198 14.932 24.4018 14.3194 24.4018H2.31C1.69735 24.4018 1.10979 24.1198 0.676583 23.6178C0.243374 23.1158 1.12497e-07 22.435 1.12497e-07 21.7251C0.000305416 21.2193 0.12359 20.7238 0.355726 20.2955C0.587861 19.8671 0.919453 19.5232 1.3125 19.3032V5.09175C0.919384 4.87367 0.587534 4.53117 0.355284 4.10382C0.123035 3.67646 -0.000135884 3.18169 1.12497e-07 2.67667ZM14.3194 1.52083H2.31C2.04545 1.52083 1.79173 1.64261 1.60466 1.85937C1.41759 2.07613 1.3125 2.37012 1.3125 2.67667C1.3125 2.98321 1.41759 3.2772 1.60466 3.49396C1.79173 3.71073 2.04545 3.8325 2.31 3.8325H2.625V20.5617H2.31C1.75875 20.5617 1.3125 21.0864 1.3125 21.7251C1.3125 22.3639 1.75875 22.8809 2.31 22.8809H14.3194C14.8706 22.8809 15.3169 22.3639 15.3169 21.7251C15.3169 21.132 14.933 20.6377 14.4375 20.5693V3.8249C14.6908 3.79108 14.9233 3.64613 15.0873 3.41983C15.2513 3.19353 15.3342 2.90307 15.3191 2.60811C15.304 2.31316 15.1919 2.03612 15.006 1.8339C14.8201 1.63169 14.5744 1.51966 14.3194 1.52083Z" fill="#FBB13C"/>
</svg>
