<svg width="29" height="33" viewBox="0 0 29 33" fill="none" xmlns="http://www.w3.org/2000/svg">
<path d="M4.2893 27.9372L14.3809 31.1113M6.37969 12.8457C5.40796 9.03343 8.88353 4.21308 12.9232 3.0533C14.8911 2.46797 17.0101 2.4843 18.9672 3.09987C20.9243 3.71544 22.6157 4.89759 23.7914 6.47167C26.3527 10.0128 25.9169 15.3784 22.6387 17.8531L10.0739 27.3414L6.37969 12.8457Z" stroke="#007CBE" stroke-linecap="round" stroke-linejoin="round"/>
<path d="M14.3093 15.9674C16.5431 16.67 18.9691 15.5628 19.7279 13.4945C20.4867 11.4261 19.2909 9.17982 17.0571 8.47722C14.8233 7.77462 12.3973 8.88178 11.6385 10.9501C10.8797 13.0185 12.0754 15.2648 14.3093 15.9674Z" stroke="#007CBE" stroke-linecap="round" stroke-linejoin="round"/>
</svg>
