<svg width="31" height="41" viewBox="0 0 31 41" fill="none" xmlns="http://www.w3.org/2000/svg">
<path d="M0.500158 16.3919V16.3897C0.500158 7.60683 7.25594 0.5 15.5 0.5C23.7439 0.5 30.4998 7.60662 30.4998 16.4L30.4999 16.4021C30.5272 22.8176 26.7521 28.8502 22.8924 33.3241C20.9705 35.5519 19.0454 37.3727 17.6006 38.6364C16.8785 39.268 16.2773 39.7597 15.8575 40.0928C15.7168 40.2044 15.5965 40.2983 15.499 40.3735C14.476 39.5947 11.1514 36.9678 7.88786 33.1581C4.10515 28.7424 0.472832 22.8165 0.500158 16.3919ZM7.25008 16.4C7.25008 21.1797 10.9158 25.1 15.5 25.1C20.0842 25.1 23.7499 21.1797 23.7499 16.4C23.7499 11.6203 20.0842 7.7 15.5 7.7C10.9158 7.7 7.25008 11.6203 7.25008 16.4Z" fill="#007CBE" stroke="black"/>
</svg>
