<svg width="17" height="17" viewBox="0 0 17 17" fill="none" xmlns="http://www.w3.org/2000/svg">
<path d="M16.2917 4.95832V9.20832H14.875V4.95832M14.875 10.625H16.2917V12.0417H14.875M8.5 1.41666C8.12428 1.41666 7.76394 1.56591 7.49827 1.83159C7.23259 2.09727 7.08333 2.4576 7.08333 2.83332C7.07836 2.90171 7.07836 2.97036 7.08333 3.03874C5.04333 3.64082 3.54167 5.53916 3.54167 7.79166V12.0417L2.125 13.4583V14.1667H14.875V13.4583L13.4583 12.0417V7.79166C13.4583 5.53916 11.9567 3.64082 9.91667 3.03874C9.92164 2.97036 9.92164 2.90171 9.91667 2.83332C9.91667 2.4576 9.76741 2.09727 9.50173 1.83159C9.23606 1.56591 8.87572 1.41666 8.5 1.41666ZM7.08333 14.875C7.08333 15.2507 7.23259 15.611 7.49827 15.8767C7.76394 16.1424 8.12428 16.2917 8.5 16.2917C8.87572 16.2917 9.23606 16.1424 9.50173 15.8767C9.76741 15.611 9.91667 15.2507 9.91667 14.875H7.08333Z" fill="#F4AA41"/>
</svg>
