<svg width="35" height="34" viewBox="0 0 35 34" fill="none" xmlns="http://www.w3.org/2000/svg">
<path d="M34.5 17C34.5 26.0991 26.9026 33.5 17.5 33.5C8.0974 33.5 0.5 26.0991 0.5 17C0.5 7.90087 8.0974 0.5 17.5 0.5C26.9026 0.5 34.5 7.90087 34.5 17Z" fill="white" stroke="#8C00AF"/>
<path d="M25 15C25 18.976 18 26 18 26C18 26 11 18.976 11 15C11 11.024 14.134 8 18 8C21.866 8 25 11.024 25 15Z" stroke="#8C00AF" stroke-width="2" stroke-linecap="round" stroke-linejoin="round"/>
<path d="M18 18C19.6569 18 21 16.6569 21 15C21 13.3431 19.6569 12 18 12C16.3431 12 15 13.3431 15 15C15 16.6569 16.3431 18 18 18Z" stroke="#8C00AF" stroke-width="2" stroke-linecap="round" stroke-linejoin="round"/>
</svg>
