<svg width="25" height="24" viewBox="0 0 25 24" fill="none" xmlns="http://www.w3.org/2000/svg">
<path d="M18.5 13.7007H17.7292C16.65 12.0961 15.8792 9.99783 15.1083 7.89952L16.4958 9.01039C20.6583 11.6024 24.3583 11.1087 24.3583 11.1087C24.3583 11.1087 25.4375 6.41836 21.275 3.94976C17.7292 1.72802 14.4917 1.72802 13.5667 1.85145C13.4125 1.11087 13.4125 0.49372 13.2583 0L11.1 0.12343C11.1 4.07319 6.9375 11.3556 5.55 13.7007C2.46667 13.9476 0 16.0459 0 18.6379C0 21.3534 2.775 23.5751 6.16667 23.5751C7.8625 23.5751 9.25 23.0814 10.3292 22.2174C9.7125 21.1065 9.25 19.8722 9.25 18.6379C9.25 17.4036 9.7125 16.1693 10.3292 15.0585C9.7125 14.5647 8.7875 14.1944 8.01667 13.9476C9.09583 12.0961 10.9458 8.76353 12.1792 5.55435C12.7958 8.39324 14.0292 11.7258 15.5708 14.3179C13.7208 15.1819 12.3333 16.7865 12.3333 18.6379C12.3333 21.3534 15.1083 23.5751 18.5 23.5751C21.8917 23.5751 24.6667 21.3534 24.6667 18.6379C24.6667 15.9225 21.8917 13.7007 18.5 13.7007ZM6.16667 16.7865C4.93333 16.7865 3.85417 17.6505 3.85417 18.6379H2.3125C2.3125 16.9099 4.00833 15.5522 6.16667 15.5522V16.7865ZM18.5 16.7865C17.2667 16.7865 16.1875 17.6505 16.1875 18.6379H14.6458C14.6458 16.9099 16.3417 15.5522 18.5 15.5522V16.7865Z" fill="#FBB13C"/>
</svg>
