<svg width="48" height="44" viewBox="0 0 48 44" fill="none" xmlns="http://www.w3.org/2000/svg">
<path d="M47.5 22C47.5 33.8341 37.0205 43.5 24 43.5C10.9795 43.5 0.5 33.8341 0.5 22C0.5 10.1659 10.9795 0.5 24 0.5C37.0205 0.5 47.5 10.1659 47.5 22Z" fill="white" stroke="#007CBE"/>
<path d="M30.5 23.7007H29.7292C28.65 22.0961 27.8792 19.9978 27.1083 17.8995L28.4958 19.0104C32.6583 21.6024 36.3583 21.1087 36.3583 21.1087C36.3583 21.1087 37.4375 16.4184 33.275 13.9498C29.7292 11.728 26.4917 11.728 25.5667 11.8514C25.4125 11.1109 25.4125 10.4937 25.2583 10L23.1 10.1234C23.1 14.0732 18.9375 21.3556 17.55 23.7007C14.4667 23.9476 12 26.0459 12 28.6379C12 31.3534 14.775 33.5751 18.1667 33.5751C19.8625 33.5751 21.25 33.0814 22.3292 32.2174C21.7125 31.1065 21.25 29.8722 21.25 28.6379C21.25 27.4036 21.7125 26.1693 22.3292 25.0585C21.7125 24.5647 20.7875 24.1944 20.0167 23.9476C21.0958 22.0961 22.9458 18.7635 24.1792 15.5543C24.7958 18.3932 26.0292 21.7258 27.5708 24.3179C25.7208 25.1819 24.3333 26.7865 24.3333 28.6379C24.3333 31.3534 27.1083 33.5751 30.5 33.5751C33.8917 33.5751 36.6667 31.3534 36.6667 28.6379C36.6667 25.9225 33.8917 23.7007 30.5 23.7007ZM18.1667 26.7865C16.9333 26.7865 15.8542 27.6505 15.8542 28.6379H14.3125C14.3125 26.9099 16.0083 25.5522 18.1667 25.5522V26.7865ZM30.5 26.7865C29.2667 26.7865 28.1875 27.6505 28.1875 28.6379H26.6458C26.6458 26.9099 28.3417 25.5522 30.5 25.5522V26.7865Z" fill="#007CBE"/>
</svg>
