<svg width="250" height="55" viewBox="0 0 250 55" fill="none" xmlns="http://www.w3.org/2000/svg">
<rect x="0.5" y="0.5" width="249" height="54" rx="8.5" fill="white" stroke="#EF445D"/>
<path d="M81.9375 22.625V34H80.4297V22.625H81.9375ZM85.8984 27.2266V34H84.4453V25.5469H85.8203L85.8984 27.2266ZM85.6016 29.4531L84.9297 29.4297C84.9349 28.8516 85.0104 28.3177 85.1562 27.8281C85.3021 27.3333 85.5182 26.9036 85.8047 26.5391C86.0911 26.1745 86.4479 25.8932 86.875 25.6953C87.3021 25.4922 87.7969 25.3906 88.3594 25.3906C88.7552 25.3906 89.1198 25.4479 89.4531 25.5625C89.7865 25.6719 90.0755 25.8464 90.3203 26.0859C90.5651 26.3255 90.7552 26.6328 90.8906 27.0078C91.026 27.3828 91.0938 27.8359 91.0938 28.3672V34H89.6484V28.4375C89.6484 27.9948 89.5729 27.6406 89.4219 27.375C89.276 27.1094 89.0677 26.9167 88.7969 26.7969C88.526 26.6719 88.2083 26.6094 87.8438 26.6094C87.4167 26.6094 87.0599 26.6849 86.7734 26.8359C86.487 26.987 86.2578 27.1953 86.0859 27.4609C85.9141 27.7266 85.7891 28.0312 85.7109 28.375C85.638 28.7135 85.6016 29.0729 85.6016 29.4531ZM91.0781 28.6562L90.1094 28.9531C90.1146 28.4896 90.1901 28.0443 90.3359 27.6172C90.487 27.1901 90.7031 26.8099 90.9844 26.4766C91.2708 26.1432 91.6224 25.8802 92.0391 25.6875C92.4557 25.4896 92.9323 25.3906 93.4688 25.3906C93.9219 25.3906 94.3229 25.4505 94.6719 25.5703C95.026 25.6901 95.3229 25.875 95.5625 26.125C95.8073 26.3698 95.9922 26.6849 96.1172 27.0703C96.2422 27.4557 96.3047 27.9141 96.3047 28.4453V34H94.8516V28.4297C94.8516 27.9557 94.776 27.5885 94.625 27.3281C94.4792 27.0625 94.2708 26.8776 94 26.7734C93.7344 26.6641 93.4167 26.6094 93.0469 26.6094C92.7292 26.6094 92.4479 26.6641 92.2031 26.7734C91.9583 26.8828 91.7526 27.0339 91.5859 27.2266C91.4193 27.4141 91.2917 27.6302 91.2031 27.875C91.1198 28.1198 91.0781 28.3802 91.0781 28.6562ZM99.9375 27.1719V37.25H98.4844V25.5469H99.8125L99.9375 27.1719ZM105.633 29.7031V29.8672C105.633 30.4818 105.56 31.0521 105.414 31.5781C105.268 32.099 105.055 32.5521 104.773 32.9375C104.497 33.3229 104.156 33.6224 103.75 33.8359C103.344 34.0495 102.878 34.1562 102.352 34.1562C101.815 34.1562 101.341 34.0677 100.93 33.8906C100.518 33.7135 100.169 33.4557 99.8828 33.1172C99.5964 32.7786 99.3672 32.3724 99.1953 31.8984C99.0286 31.4245 98.9141 30.8906 98.8516 30.2969V29.4219C98.9141 28.7969 99.0312 28.237 99.2031 27.7422C99.375 27.2474 99.6016 26.8255 99.8828 26.4766C100.169 26.1224 100.516 25.8542 100.922 25.6719C101.328 25.4844 101.797 25.3906 102.328 25.3906C102.859 25.3906 103.331 25.4948 103.742 25.7031C104.154 25.9062 104.5 26.1979 104.781 26.5781C105.062 26.9583 105.273 27.4141 105.414 27.9453C105.56 28.4714 105.633 29.0573 105.633 29.7031ZM104.18 29.8672V29.7031C104.18 29.2812 104.135 28.8854 104.047 28.5156C103.958 28.1406 103.82 27.8125 103.633 27.5312C103.451 27.2448 103.216 27.0208 102.93 26.8594C102.643 26.6927 102.302 26.6094 101.906 26.6094C101.542 26.6094 101.224 26.6719 100.953 26.7969C100.688 26.9219 100.461 27.0911 100.273 27.3047C100.086 27.513 99.9323 27.7526 99.8125 28.0234C99.6979 28.2891 99.612 28.5651 99.5547 28.8516V30.875C99.6589 31.2396 99.8047 31.5833 99.9922 31.9062C100.18 32.224 100.43 32.4818 100.742 32.6797C101.055 32.8724 101.448 32.9688 101.922 32.9688C102.312 32.9688 102.648 32.888 102.93 32.7266C103.216 32.5599 103.451 32.3333 103.633 32.0469C103.82 31.7604 103.958 31.4323 104.047 31.0625C104.135 30.6875 104.18 30.2891 104.18 29.8672ZM107.094 29.8672V29.6875C107.094 29.0781 107.182 28.513 107.359 27.9922C107.536 27.4661 107.792 27.0104 108.125 26.625C108.458 26.2344 108.862 25.9323 109.336 25.7188C109.81 25.5 110.341 25.3906 110.93 25.3906C111.523 25.3906 112.057 25.5 112.531 25.7188C113.01 25.9323 113.417 26.2344 113.75 26.625C114.089 27.0104 114.346 27.4661 114.523 27.9922C114.701 28.513 114.789 29.0781 114.789 29.6875V29.8672C114.789 30.4766 114.701 31.0417 114.523 31.5625C114.346 32.0833 114.089 32.5391 113.75 32.9297C113.417 33.3151 113.013 33.6172 112.539 33.8359C112.07 34.0495 111.539 34.1562 110.945 34.1562C110.352 34.1562 109.818 34.0495 109.344 33.8359C108.87 33.6172 108.464 33.3151 108.125 32.9297C107.792 32.5391 107.536 32.0833 107.359 31.5625C107.182 31.0417 107.094 30.4766 107.094 29.8672ZM108.539 29.6875V29.8672C108.539 30.2891 108.589 30.6875 108.688 31.0625C108.786 31.4323 108.935 31.7604 109.133 32.0469C109.336 32.3333 109.589 32.5599 109.891 32.7266C110.193 32.888 110.544 32.9688 110.945 32.9688C111.341 32.9688 111.688 32.888 111.984 32.7266C112.286 32.5599 112.536 32.3333 112.734 32.0469C112.932 31.7604 113.081 31.4323 113.18 31.0625C113.284 30.6875 113.336 30.2891 113.336 29.8672V29.6875C113.336 29.2708 113.284 28.8776 113.18 28.5078C113.081 28.1328 112.93 27.8021 112.727 27.5156C112.529 27.224 112.279 26.9948 111.977 26.8281C111.68 26.6615 111.331 26.5781 110.93 26.5781C110.534 26.5781 110.185 26.6615 109.883 26.8281C109.586 26.9948 109.336 27.224 109.133 27.5156C108.935 27.8021 108.786 28.1328 108.688 28.5078C108.589 28.8776 108.539 29.2708 108.539 29.6875ZM118.047 26.875V34H116.602V25.5469H118.008L118.047 26.875ZM120.688 25.5L120.68 26.8438C120.56 26.8177 120.445 26.8021 120.336 26.7969C120.232 26.7865 120.112 26.7812 119.977 26.7812C119.643 26.7812 119.349 26.8333 119.094 26.9375C118.839 27.0417 118.622 27.1875 118.445 27.375C118.268 27.5625 118.128 27.7865 118.023 28.0469C117.924 28.3021 117.859 28.5833 117.828 28.8906L117.422 29.125C117.422 28.6146 117.471 28.1354 117.57 27.6875C117.674 27.2396 117.833 26.8438 118.047 26.5C118.26 26.151 118.531 25.8802 118.859 25.6875C119.193 25.4896 119.589 25.3906 120.047 25.3906C120.151 25.3906 120.271 25.4036 120.406 25.4297C120.542 25.4505 120.635 25.474 120.688 25.5ZM125.953 25.5469V26.6562H121.383V25.5469H125.953ZM122.93 23.4922H124.375V31.9062C124.375 32.1927 124.419 32.4089 124.508 32.5547C124.596 32.7005 124.711 32.7969 124.852 32.8438C124.992 32.8906 125.143 32.9141 125.305 32.9141C125.424 32.9141 125.549 32.9036 125.68 32.8828C125.815 32.8568 125.917 32.8359 125.984 32.8203L125.992 34C125.878 34.0365 125.727 34.0703 125.539 34.1016C125.357 34.138 125.135 34.1562 124.875 34.1562C124.521 34.1562 124.195 34.0859 123.898 33.9453C123.602 33.8047 123.365 33.5703 123.188 33.2422C123.016 32.9089 122.93 32.4609 122.93 31.8984V23.4922ZM131.156 34.1562C130.568 34.1562 130.034 34.0573 129.555 33.8594C129.081 33.6562 128.672 33.3724 128.328 33.0078C127.99 32.6432 127.729 32.2109 127.547 31.7109C127.365 31.2109 127.273 30.6641 127.273 30.0703V29.7422C127.273 29.0547 127.375 28.4427 127.578 27.9062C127.781 27.3646 128.057 26.9062 128.406 26.5312C128.755 26.1562 129.151 25.8724 129.594 25.6797C130.036 25.487 130.495 25.3906 130.969 25.3906C131.573 25.3906 132.094 25.4948 132.531 25.7031C132.974 25.9115 133.336 26.2031 133.617 26.5781C133.898 26.9479 134.107 27.3854 134.242 27.8906C134.378 28.3906 134.445 28.9375 134.445 29.5312V30.1797H128.133V29H133V28.8906C132.979 28.5156 132.901 28.151 132.766 27.7969C132.635 27.4427 132.427 27.151 132.141 26.9219C131.854 26.6927 131.464 26.5781 130.969 26.5781C130.641 26.5781 130.339 26.6484 130.062 26.7891C129.786 26.9245 129.549 27.1276 129.352 27.3984C129.154 27.6693 129 28 128.891 28.3906C128.781 28.7812 128.727 29.2318 128.727 29.7422V30.0703C128.727 30.4714 128.781 30.849 128.891 31.2031C129.005 31.5521 129.169 31.8594 129.383 32.125C129.602 32.3906 129.865 32.599 130.172 32.75C130.484 32.901 130.839 32.9766 131.234 32.9766C131.745 32.9766 132.177 32.8724 132.531 32.6641C132.885 32.4557 133.195 32.1771 133.461 31.8281L134.336 32.5234C134.154 32.7995 133.922 33.0625 133.641 33.3125C133.359 33.5625 133.013 33.7656 132.602 33.9219C132.195 34.0781 131.714 34.1562 131.156 34.1562ZM137.578 26.875V34H136.133V25.5469H137.539L137.578 26.875ZM140.219 25.5L140.211 26.8438C140.091 26.8177 139.977 26.8021 139.867 26.7969C139.763 26.7865 139.643 26.7812 139.508 26.7812C139.174 26.7812 138.88 26.8333 138.625 26.9375C138.37 27.0417 138.154 27.1875 137.977 27.375C137.799 27.5625 137.659 27.7865 137.555 28.0469C137.456 28.3021 137.391 28.5833 137.359 28.8906L136.953 29.125C136.953 28.6146 137.003 28.1354 137.102 27.6875C137.206 27.2396 137.365 26.8438 137.578 26.5C137.792 26.151 138.062 25.8802 138.391 25.6875C138.724 25.4896 139.12 25.3906 139.578 25.3906C139.682 25.3906 139.802 25.4036 139.938 25.4297C140.073 25.4505 140.167 25.474 140.219 25.5ZM150.695 32.0469V25.5469H152.148V34H150.766L150.695 32.0469ZM150.969 30.2656L151.57 30.25C151.57 30.8125 151.51 31.3333 151.391 31.8125C151.276 32.2865 151.089 32.6979 150.828 33.0469C150.568 33.3958 150.227 33.6693 149.805 33.8672C149.383 34.0599 148.87 34.1562 148.266 34.1562C147.854 34.1562 147.477 34.0964 147.133 33.9766C146.794 33.8568 146.503 33.6719 146.258 33.4219C146.013 33.1719 145.823 32.8464 145.688 32.4453C145.557 32.0443 145.492 31.5625 145.492 31V25.5469H146.938V31.0156C146.938 31.3958 146.979 31.7109 147.062 31.9609C147.151 32.2057 147.268 32.401 147.414 32.5469C147.565 32.6875 147.732 32.7865 147.914 32.8438C148.102 32.901 148.294 32.9297 148.492 32.9297C149.107 32.9297 149.594 32.8125 149.953 32.5781C150.312 32.3385 150.57 32.0182 150.727 31.6172C150.888 31.2109 150.969 30.7604 150.969 30.2656ZM155.797 27.3516V34H154.352V25.5469H155.719L155.797 27.3516ZM155.453 29.4531L154.852 29.4297C154.857 28.8516 154.943 28.3177 155.109 27.8281C155.276 27.3333 155.51 26.9036 155.812 26.5391C156.115 26.1745 156.474 25.8932 156.891 25.6953C157.312 25.4922 157.779 25.3906 158.289 25.3906C158.706 25.3906 159.081 25.4479 159.414 25.5625C159.747 25.6719 160.031 25.849 160.266 26.0938C160.505 26.3385 160.688 26.6562 160.812 27.0469C160.938 27.4323 161 27.9036 161 28.4609V34H159.547V28.4453C159.547 28.0026 159.482 27.6484 159.352 27.3828C159.221 27.112 159.031 26.9167 158.781 26.7969C158.531 26.6719 158.224 26.6094 157.859 26.6094C157.5 26.6094 157.172 26.6849 156.875 26.8359C156.583 26.987 156.331 27.1953 156.117 27.4609C155.909 27.7266 155.745 28.0312 155.625 28.375C155.51 28.7135 155.453 29.0729 155.453 29.4531ZM166.703 34.1562C166.115 34.1562 165.581 34.0573 165.102 33.8594C164.628 33.6562 164.219 33.3724 163.875 33.0078C163.536 32.6432 163.276 32.2109 163.094 31.7109C162.911 31.2109 162.82 30.6641 162.82 30.0703V29.7422C162.82 29.0547 162.922 28.4427 163.125 27.9062C163.328 27.3646 163.604 26.9062 163.953 26.5312C164.302 26.1562 164.698 25.8724 165.141 25.6797C165.583 25.487 166.042 25.3906 166.516 25.3906C167.12 25.3906 167.641 25.4948 168.078 25.7031C168.521 25.9115 168.883 26.2031 169.164 26.5781C169.445 26.9479 169.654 27.3854 169.789 27.8906C169.924 28.3906 169.992 28.9375 169.992 29.5312V30.1797H163.68V29H168.547V28.8906C168.526 28.5156 168.448 28.151 168.312 27.7969C168.182 27.4427 167.974 27.151 167.688 26.9219C167.401 26.6927 167.01 26.5781 166.516 26.5781C166.188 26.5781 165.885 26.6484 165.609 26.7891C165.333 26.9245 165.096 27.1276 164.898 27.3984C164.701 27.6693 164.547 28 164.438 28.3906C164.328 28.7812 164.273 29.2318 164.273 29.7422V30.0703C164.273 30.4714 164.328 30.849 164.438 31.2031C164.552 31.5521 164.716 31.8594 164.93 32.125C165.148 32.3906 165.411 32.599 165.719 32.75C166.031 32.901 166.385 32.9766 166.781 32.9766C167.292 32.9766 167.724 32.8724 168.078 32.6641C168.432 32.4557 168.742 32.1771 169.008 31.8281L169.883 32.5234C169.701 32.7995 169.469 33.0625 169.188 33.3125C168.906 33.5625 168.56 33.7656 168.148 33.9219C167.742 34.0781 167.26 34.1562 166.703 34.1562ZM177.219 25.5469V34H175.766V25.5469H177.219ZM175.656 23.3047C175.656 23.0703 175.727 22.8724 175.867 22.7109C176.013 22.5495 176.227 22.4688 176.508 22.4688C176.784 22.4688 176.995 22.5495 177.141 22.7109C177.292 22.8724 177.367 23.0703 177.367 23.3047C177.367 23.5286 177.292 23.7214 177.141 23.8828C176.995 24.0391 176.784 24.1172 176.508 24.1172C176.227 24.1172 176.013 24.0391 175.867 23.8828C175.727 23.7214 175.656 23.5286 175.656 23.3047ZM180.977 27.2266V34H179.523V25.5469H180.898L180.977 27.2266ZM180.68 29.4531L180.008 29.4297C180.013 28.8516 180.089 28.3177 180.234 27.8281C180.38 27.3333 180.596 26.9036 180.883 26.5391C181.169 26.1745 181.526 25.8932 181.953 25.6953C182.38 25.4922 182.875 25.3906 183.438 25.3906C183.833 25.3906 184.198 25.4479 184.531 25.5625C184.865 25.6719 185.154 25.8464 185.398 26.0859C185.643 26.3255 185.833 26.6328 185.969 27.0078C186.104 27.3828 186.172 27.8359 186.172 28.3672V34H184.727V28.4375C184.727 27.9948 184.651 27.6406 184.5 27.375C184.354 27.1094 184.146 26.9167 183.875 26.7969C183.604 26.6719 183.286 26.6094 182.922 26.6094C182.495 26.6094 182.138 26.6849 181.852 26.8359C181.565 26.987 181.336 27.1953 181.164 27.4609C180.992 27.7266 180.867 28.0312 180.789 28.375C180.716 28.7135 180.68 29.0729 180.68 29.4531ZM186.156 28.6562L185.188 28.9531C185.193 28.4896 185.268 28.0443 185.414 27.6172C185.565 27.1901 185.781 26.8099 186.062 26.4766C186.349 26.1432 186.701 25.8802 187.117 25.6875C187.534 25.4896 188.01 25.3906 188.547 25.3906C189 25.3906 189.401 25.4505 189.75 25.5703C190.104 25.6901 190.401 25.875 190.641 26.125C190.885 26.3698 191.07 26.6849 191.195 27.0703C191.32 27.4557 191.383 27.9141 191.383 28.4453V34H189.93V28.4297C189.93 27.9557 189.854 27.5885 189.703 27.3281C189.557 27.0625 189.349 26.8776 189.078 26.7734C188.812 26.6641 188.495 26.6094 188.125 26.6094C187.807 26.6094 187.526 26.6641 187.281 26.7734C187.036 26.8828 186.831 27.0339 186.664 27.2266C186.497 27.4141 186.37 27.6302 186.281 27.875C186.198 28.1198 186.156 28.3802 186.156 28.6562ZM198.555 32.5547V28.2031C198.555 27.8698 198.487 27.5807 198.352 27.3359C198.221 27.0859 198.023 26.8932 197.758 26.7578C197.492 26.6224 197.164 26.5547 196.773 26.5547C196.409 26.5547 196.089 26.6172 195.812 26.7422C195.542 26.8672 195.328 27.0312 195.172 27.2344C195.021 27.4375 194.945 27.6562 194.945 27.8906H193.5C193.5 27.5885 193.578 27.2891 193.734 26.9922C193.891 26.6953 194.115 26.4271 194.406 26.1875C194.703 25.9427 195.057 25.75 195.469 25.6094C195.885 25.4635 196.349 25.3906 196.859 25.3906C197.474 25.3906 198.016 25.4948 198.484 25.7031C198.958 25.9115 199.328 26.2266 199.594 26.6484C199.865 27.0651 200 27.5885 200 28.2188V32.1562C200 32.4375 200.023 32.737 200.07 33.0547C200.122 33.3724 200.198 33.6458 200.297 33.875V34H198.789C198.716 33.8333 198.659 33.612 198.617 33.3359C198.576 33.0547 198.555 32.7943 198.555 32.5547ZM198.805 28.875L198.82 29.8906H197.359C196.948 29.8906 196.581 29.9245 196.258 29.9922C195.935 30.0547 195.664 30.151 195.445 30.2812C195.227 30.4115 195.06 30.5755 194.945 30.7734C194.831 30.9661 194.773 31.1927 194.773 31.4531C194.773 31.7188 194.833 31.9609 194.953 32.1797C195.073 32.3984 195.253 32.5729 195.492 32.7031C195.737 32.8281 196.036 32.8906 196.391 32.8906C196.833 32.8906 197.224 32.7969 197.562 32.6094C197.901 32.4219 198.169 32.1927 198.367 31.9219C198.57 31.651 198.68 31.388 198.695 31.1328L199.312 31.8281C199.276 32.0469 199.177 32.2891 199.016 32.5547C198.854 32.8203 198.638 33.0755 198.367 33.3203C198.102 33.5599 197.784 33.7604 197.414 33.9219C197.049 34.0781 196.638 34.1562 196.18 34.1562C195.607 34.1562 195.104 34.0443 194.672 33.8203C194.245 33.5964 193.911 33.2969 193.672 32.9219C193.438 32.5417 193.32 32.1172 193.32 31.6484C193.32 31.1953 193.409 30.7969 193.586 30.4531C193.763 30.1042 194.018 29.8151 194.352 29.5859C194.685 29.3516 195.086 29.1745 195.555 29.0547C196.023 28.9349 196.547 28.875 197.125 28.875H198.805ZM207.75 25.5469H209.062V33.8203C209.062 34.5651 208.911 35.2005 208.609 35.7266C208.307 36.2526 207.885 36.651 207.344 36.9219C206.807 37.1979 206.188 37.3359 205.484 37.3359C205.193 37.3359 204.849 37.2891 204.453 37.1953C204.062 37.1068 203.677 36.9531 203.297 36.7344C202.922 36.5208 202.607 36.2318 202.352 35.8672L203.109 35.0078C203.464 35.4349 203.833 35.7318 204.219 35.8984C204.609 36.0651 204.995 36.1484 205.375 36.1484C205.833 36.1484 206.229 36.0625 206.562 35.8906C206.896 35.7188 207.154 35.4635 207.336 35.125C207.523 34.7917 207.617 34.3802 207.617 33.8906V27.4062L207.75 25.5469ZM201.93 29.8672V29.7031C201.93 29.0573 202.005 28.4714 202.156 27.9453C202.312 27.4141 202.534 26.9583 202.82 26.5781C203.112 26.1979 203.464 25.9062 203.875 25.7031C204.286 25.4948 204.75 25.3906 205.266 25.3906C205.797 25.3906 206.26 25.4844 206.656 25.6719C207.057 25.8542 207.396 26.1224 207.672 26.4766C207.953 26.8255 208.174 27.2474 208.336 27.7422C208.497 28.237 208.609 28.7969 208.672 29.4219V30.1406C208.615 30.7604 208.503 31.3177 208.336 31.8125C208.174 32.3073 207.953 32.7292 207.672 33.0781C207.396 33.4271 207.057 33.6953 206.656 33.8828C206.255 34.0651 205.786 34.1562 205.25 34.1562C204.745 34.1562 204.286 34.0495 203.875 33.8359C203.469 33.6224 203.12 33.3229 202.828 32.9375C202.536 32.5521 202.312 32.099 202.156 31.5781C202.005 31.0521 201.93 30.4818 201.93 29.8672ZM203.375 29.7031V29.8672C203.375 30.2891 203.417 30.6849 203.5 31.0547C203.589 31.4245 203.721 31.75 203.898 32.0312C204.081 32.3125 204.312 32.5339 204.594 32.6953C204.875 32.8516 205.211 32.9297 205.602 32.9297C206.081 32.9297 206.477 32.8281 206.789 32.625C207.102 32.4219 207.349 32.1536 207.531 31.8203C207.719 31.487 207.865 31.125 207.969 30.7344V28.8516C207.911 28.5651 207.823 28.2891 207.703 28.0234C207.589 27.7526 207.438 27.513 207.25 27.3047C207.068 27.0911 206.841 26.9219 206.57 26.7969C206.299 26.6719 205.982 26.6094 205.617 26.6094C205.221 26.6094 204.88 26.6927 204.594 26.8594C204.312 27.0208 204.081 27.2448 203.898 27.5312C203.721 27.8125 203.589 28.1406 203.5 28.5156C203.417 28.8854 203.375 29.2812 203.375 29.7031ZM214.766 34.1562C214.177 34.1562 213.643 34.0573 213.164 33.8594C212.69 33.6562 212.281 33.3724 211.938 33.0078C211.599 32.6432 211.339 32.2109 211.156 31.7109C210.974 31.2109 210.883 30.6641 210.883 30.0703V29.7422C210.883 29.0547 210.984 28.4427 211.188 27.9062C211.391 27.3646 211.667 26.9062 212.016 26.5312C212.365 26.1562 212.76 25.8724 213.203 25.6797C213.646 25.487 214.104 25.3906 214.578 25.3906C215.182 25.3906 215.703 25.4948 216.141 25.7031C216.583 25.9115 216.945 26.2031 217.227 26.5781C217.508 26.9479 217.716 27.3854 217.852 27.8906C217.987 28.3906 218.055 28.9375 218.055 29.5312V30.1797H211.742V29H216.609V28.8906C216.589 28.5156 216.51 28.151 216.375 27.7969C216.245 27.4427 216.036 27.151 215.75 26.9219C215.464 26.6927 215.073 26.5781 214.578 26.5781C214.25 26.5781 213.948 26.6484 213.672 26.7891C213.396 26.9245 213.159 27.1276 212.961 27.3984C212.763 27.6693 212.609 28 212.5 28.3906C212.391 28.7812 212.336 29.2318 212.336 29.7422V30.0703C212.336 30.4714 212.391 30.849 212.5 31.2031C212.615 31.5521 212.779 31.8594 212.992 32.125C213.211 32.3906 213.474 32.599 213.781 32.75C214.094 32.901 214.448 32.9766 214.844 32.9766C215.354 32.9766 215.786 32.8724 216.141 32.6641C216.495 32.4557 216.805 32.1771 217.07 31.8281L217.945 32.5234C217.763 32.7995 217.531 33.0625 217.25 33.3125C216.969 33.5625 216.622 33.7656 216.211 33.9219C215.805 34.0781 215.323 34.1562 214.766 34.1562Z" fill="#EF445D"/>
<path d="M40.6958 27.1945L40.3002 26.682L39.9044 27.1943L34.8044 33.7943L34.1818 34.6H35.2H55.6H56.6601L55.9858 33.782L49.1858 25.532L48.8001 25.064L48.4143 25.5319L43.764 31.17L40.6958 27.1945ZM27.9 40.7V41.2H28.4H51.7V43.5H28.4C26.792 43.5 25.5 42.2249 25.5 40.7V18.1H27.9V40.7ZM58.5 14.3V34.1C58.5 35.6249 57.208 36.9 55.6 36.9H35.2C33.592 36.9 32.3 35.6249 32.3 34.1V14.3C32.3 12.7751 33.592 11.5 35.2 11.5H55.6C57.208 11.5 58.5 12.7751 58.5 14.3Z" fill="#EF445D" stroke="#EF445D"/>
</svg>
